<?xml version="1.0" standalone="no"?>
<!DOCTYPE svg PUBLIC "-//W3C//DTD SVG 20010904//EN"
 "http://www.w3.org/TR/2001/REC-SVG-20010904/DTD/svg10.dtd">
<svg version="1.0" xmlns="http://www.w3.org/2000/svg"
 width="300.000000pt" height="300.000000pt" viewBox="0 0 300.000000 300.000000"
 preserveAspectRatio="xMidYMid meet">
<metadata>
Created by potrace 1.11, written by Peter Selinger 2001-2013
</metadata>
<g transform="translate(0.000000,300.000000) scale(0.100000,-0.100000)"
fill="#000000" stroke="none">
<path d="M1235 2930 c-318 -27 -555 -98 -731 -217 -133 -91 -259 -256 -325
-428 -86 -221 -114 -413 -113 -780 0 -310 12 -433 64 -632 89 -344 273 -565
572 -688 45 -19 89 -35 96 -35 44 0 215 154 264 240 101 175 69 386 -92 596
l-61 79 84 6 c95 7 157 31 221 88 47 43 112 140 121 182 7 30 8 28 46 -48 43
-89 97 -146 181 -190 48 -25 63 -28 153 -28 95 0 103 2 163 34 71 39 132 102
169 175 23 44 52 157 53 199 0 16 -38 17 -666 17 l-666 0 7 33 c24 108 110
240 202 307 l62 45 3 154 3 154 94 -112 93 -112 67 7 c130 15 262 5 404 -31
l27 -7 0 148 0 148 144 -214 c132 -197 149 -217 196 -244 88 -48 241 -169 339
-268 173 -173 309 -378 392 -589 24 -60 46 -109 49 -109 10 0 49 177 67 300
24 168 24 631 0 793 -51 337 -141 544 -311 712 -171 169 -373 255 -706 300
-135 19 -522 27 -665 15z"/>
<path d="M1165 1020 c-8 -13 55 -50 86 -50 14 0 34 6 44 14 15 11 22 11 44 0
14 -8 35 -14 46 -14 27 0 65 27 65 47 0 14 -3 14 -25 -1 -31 -20 -64 -20 -93
-1 -20 15 -24 14 -51 -6 l-30 -22 -40 21 c-23 12 -43 17 -46 12z"/>
</g>
</svg>
